<?xml version="1.0" standalone="no"?><!DOCTYPE svg PUBLIC "-//W3C//DTD SVG 1.1//EN" "http://www.w3.org/Graphics/SVG/1.1/DTD/svg11.dtd"><svg t="1732888869197" class="icon" viewBox="0 0 1024 1024" version="1.1" xmlns="http://www.w3.org/2000/svg" p-id="1159" xmlns:xlink="http://www.w3.org/1999/xlink" width="200" height="200"><path d="M332.46 213.08l9.39-74.87c2.98-23.17 23.16-40.49 46.94-40.28h245.5-0.23c23.8-0.21 43.98 17.11 46.94 40.28l9.53 74.87H887.1c19.43 0 35.21 15.47 35.21 34.55 0 19.1-15.77 34.57-35.21 34.57h-70.41v552.84c0 24.45-9.9 47.86-27.51 65.16-17.81 17.37-41.61 27.06-66.37 27.01H300.33c-24.9 0-48.79-9.71-66.4-26.99-17.51-17.08-27.43-40.58-27.49-65.16V282.2h-70.41c-19.46 0-35.21-15.47-35.21-34.57 0-19.07 15.75-34.55 35.21-34.55h196.45-0.02z m96.93 552.86c19.46 0 35.21-15.45 35.21-34.55V454.98c0-19.08-15.75-34.55-35.21-34.55-19.43 0-35.21 15.47-35.21 34.55v276.44c0 19.1 15.77 34.55 35.21 34.55v-0.03z m164.29 0c19.46 0 35.21-15.45 35.21-34.55V454.98c0-19.08-15.75-34.55-35.21-34.55-19.43 0-35.21 15.47-35.21 34.55v276.44c0 19.1 15.77 34.55 35.21 34.55v-0.03z m0 0" p-id="1160"></path></svg>